<?xml version="1.0" encoding="utf-8"?>
<!-- Svg Vector Icons : http://www.onlinewebfonts.com/icon -->
<!DOCTYPE svg PUBLIC "-//W3C//DTD SVG 1.1//EN" "http://www.w3.org/Graphics/SVG/1.1/DTD/svg11.dtd">
<svg version="1.1" xmlns="http://www.w3.org/2000/svg" xmlns:xlink="http://www.w3.org/1999/xlink" x="0px" y="0px" viewBox="0 0 1000 1000" style="fill:#767676; height:2em;width:2em;display:block;" enable-background="new 0 0 1000 1000" xml:space="preserve">
<metadata> Svg Vector Icons : http://www.onlinewebfonts.com/icon </metadata>
<g><path d="M936.8,688.9l-1.1-2.6c-1.9-3.9-193.1-399.3-259.8-529.1C604.8,18.6,527.4,8.8,500.1,10.1c-27.3-1.4-104.7,8.4-176,147.1C257.4,287,66.3,682.4,64.3,686.3l-1.1,2.6C61.3,694,15.3,815,93.6,913c58.8,73.4,127.3,77,161,77c1.9,0,3.7,0,5.5,0h4c35.9,0,126.2-13.9,235.8-133c109.7,119.2,200,133,235.8,133h4c1.7,0,3.5,0,5.5,0c33.7,0,102.3-3.6,161-77C984.7,815,938.7,694,936.8,688.9z M492.7,432.1l0,0.3c2.5-0.1,4.9-0.1,7.3-0.2c2.4,0,4.8,0,7.3,0.2v-0.3c28.9,0.4,51.1,7.7,66.3,21.9c24.7,23.3,27.4,61.7,27.4,77.2c0,55-34,127.8-100.9,216.2C433.1,659,399.1,586.3,399.1,531.2c0-15.5,2.7-54,27.4-77.2C441.6,439.8,463.9,432.5,492.7,432.1z M851.9,869.4c-41,51.3-85.3,51-111.6,50.9l-4.5,0c-15.1,0-91-6.1-190.7-117.3c84.3-108.2,125.4-197.3,125.4-271.7c0-30.5-6.4-87.6-49.4-128c-29.8-28-70.6-41.6-121.2-40.6c-50.6-0.9-91.3,12.6-121.2,40.6c-43,40.4-49.4,97.6-49.4,128c0,74.5,41.1,163.6,125.4,271.7c-99.6,111.2-175.6,117.3-190.7,117.3l-4.4,0c-26.4,0.1-70.6,0.5-111.6-50.9c-50-62.4-23.6-144.7-20.2-154.3C141.1,687.8,321.9,314,386.1,189C444.2,75.9,496.2,79.7,496.7,79.7c-0.1,0-0.2,0-0.4-0.1c3.9,0,7.5,0,6.9,0.1c0.5,0,52.6-3.8,110.6,109.3c64.2,125.1,245.4,499.5,258.3,526.2C875.7,725.2,902.3,806.4,851.9,869.4z"/></g>
</svg>